<svg width="1133" height="221" viewBox="0 0 1133 221" fill="none" xmlns="http://www.w3.org/2000/svg">
<g clip-path="url(#clip0_741_2)">
<path fill-rule="evenodd" clip-rule="evenodd" d="M65.0615 44.6528C69.1326 44.6528 72.4351 41.3508 72.4351 37.2777V23.1017C72.4351 19.0903 75.6961 15.8335 79.7048 15.8335H99.2293C103.243 15.8335 106.499 19.0903 106.499 23.1017V42.6261C106.499 46.6375 103.243 49.8943 99.2293 49.8943H82.7166C78.6455 49.8943 75.343 53.1963 75.343 57.2694V82.8433C75.343 87.1559 71.8432 90.6568 67.528 90.6568H37.1509C32.8358 90.6568 29.3359 87.1559 29.3359 82.8433V52.4662C29.3359 48.1537 32.8358 44.6528 37.1509 44.6528H65.0615Z" fill="#5EEAD4"/>
<path fill-rule="evenodd" clip-rule="evenodd" d="M157.907 80.1117C157.907 84.1828 161.209 87.4853 165.282 87.4853H182.417C185.082 87.4853 187.245 89.6506 187.245 92.3145V116.72C187.245 119.384 185.082 121.549 182.417 121.549H158.012C155.348 121.549 153.184 119.384 153.184 116.72V98.0264C153.184 93.9554 149.882 90.6529 145.809 90.6529H119.716C115.403 90.6529 111.903 87.153 111.903 82.8379V52.4607C111.903 48.1456 115.403 44.6458 119.716 44.6458H150.093C154.406 44.6458 157.907 48.1456 157.907 52.4607V80.1117Z" fill="#99F6E4"/>
<path fill-rule="evenodd" clip-rule="evenodd" d="M122.176 172.44C118.105 172.44 114.802 175.742 114.802 179.815V196.172C114.802 198.837 112.637 201 109.973 201H85.5675C82.9036 201 80.7383 198.837 80.7383 196.172V171.767C80.7383 169.102 82.9036 166.939 85.5675 166.939H104.521C108.592 166.939 111.894 163.637 111.894 159.564L111.894 134.25C111.894 129.937 115.394 126.436 119.709 126.436H150.086C154.401 126.436 157.901 129.937 157.901 134.25V164.627C157.901 168.939 154.401 172.44 150.086 172.44H122.176Z" fill="#5EEAD4"/>
<path fill-rule="evenodd" clip-rule="evenodd" d="M29.3386 137.236C29.3386 133.165 26.0366 129.862 21.9634 129.862H7.26818C3.25684 129.862 0 126.601 0 122.593L0 103.068C0 99.0543 3.25684 95.7985 7.26818 95.7985H26.7926C30.804 95.7985 34.0608 99.0543 34.0608 103.068L34.0608 119.062C34.0608 123.133 37.3628 126.435 41.4359 126.435H67.5291C71.8416 126.435 75.3425 129.935 75.3425 134.25L75.3425 164.627C75.3425 168.942 71.8416 172.442 67.5291 172.442H37.152C32.8395 172.442 29.3386 168.942 29.3386 164.627L29.3386 137.236Z" fill="#C4FEE6"/>
<path d="M299.912 202.792C277.128 202.792 262.792 194.344 255.112 179.24V86.824H230.536V67.112H244.36C249.992 67.112 253.576 65.064 255.112 61.224V20.264H278.664V67.112H314.76V86.824H278.664V169C281.992 176.168 288.904 181.032 303.496 181.032H315.528V201C311.432 202.024 305.544 202.792 299.912 202.792ZM420.146 157.224L441.394 166.44C430.898 189.992 407.602 205.096 377.65 205.096C345.906 205.096 320.562 185.896 312.626 161.064V106.792C320.306 81.96 345.138 63.272 376.882 63.272C408.114 63.272 432.69 81.96 440.37 106.792V141.096H335.922V155.176C340.018 170.28 356.658 183.336 377.906 183.336C400.178 183.336 414.002 172.328 420.146 157.224ZM376.626 84.264C355.89 84.264 339.762 97.32 335.922 112.424V121.896H417.33V112.424C413.234 97.32 397.362 84.264 376.626 84.264ZM507.72 63.272C536.136 63.272 558.664 78.376 566.088 98.088V201H544.072V186.152C534.088 197.928 518.472 204.584 500.808 204.584C476.232 204.584 457.544 193.832 450.632 180.008V150.312C458.056 133.672 479.048 125.992 503.112 123.176C526.92 120.104 539.72 117.8 542.792 113.192V104.232C538.184 93.992 526.152 85.032 507.72 85.032C489.544 85.032 473.928 95.528 468.296 109.864L447.816 99.88C456.52 79.4 479.816 63.272 507.72 63.272ZM542.792 166.184V131.368C538.44 135.464 527.432 138.536 507.208 141.608C487.496 144.424 477.512 149.288 473.416 156.968V171.56C478.024 178.216 487.496 184.104 504.904 184.104C522.056 184.104 536.392 176.68 542.792 166.184ZM604.738 201H581.186V20.264H604.738V201Z" fill="white"/>
</g>
<defs>
<clipPath id="clip0_741_2">
<rect width="1133" height="221" fill="white"/>
</clipPath>
</defs>
</svg>
